<?xml version="1.0" encoding="utf-8"?>
<!-- Generator: Adobe Illustrator 27.5.0, SVG Export Plug-In . SVG Version: 6.00 Build 0)  -->
<svg version="1.1" xmlns="http://www.w3.org/2000/svg" xmlns:xlink="http://www.w3.org/1999/xlink" x="0px" y="0px"
	 viewBox="0 0 890 500" style="enable-background:new 0 0 890 500;" xml:space="preserve">
<g id="BACKGROUND">
	<rect x="-0.5" y="-0.5" style="fill:#EEEFFF;" width="891" height="501"/>
</g>
<g id="OBJECTS">
	<g>
		<g>
			<text transform="matrix(1 0 0 1 56.3867 45.9572)" style="fill:#4C22E5; font-family:'Raleway-SemiBold'; font-size:14px;">YOUR LOGO</text>
			<g>
				<text transform="matrix(1 0 0 1 668.7581 45.9572)" style="fill:#4C22E5; font-family:'Raleway-Medium'; font-size:13px;">Home</text>
				<text transform="matrix(1 0 0 1 742.6604 45.9572)" style="fill:#4C22E5; font-family:'Raleway-Medium'; font-size:13px;">TEAM</text>
				<text transform="matrix(1 0 0 1 820.8586 45.9572)" style="fill:#4C22E5; font-family:'Raleway-Medium'; font-size:13px;">lOGIN</text>
			</g>
			<g>
				<path style="fill:#4C22E5;" d="M793.037,368.667h45.409c5.429,0,9.871-4.442,9.871-9.871l0,0c0-5.429-4.442-9.871-9.871-9.871
					h-45.409c-5.429,0-9.871,4.442-9.871,9.871l0,0C783.165,364.225,787.607,368.667,793.037,368.667z"/>
				<text transform="matrix(1 0 0 1 797.7346 364.2691)" style="fill:#FDFDFF; font-family:'Raleway-Medium'; font-size:16px;">Start</text>
			</g>
			<g>
				<rect x="566.17" y="298.772" style="fill:none;" width="282.413" height="27.531"/>
				<text transform="matrix(1 0 0 1 574.1123 305.9796)"><tspan x="0" y="0" style="fill:#4C22E5; font-family:'Raleway-Light'; font-size:9.8729px;">Lorem ipsum dolor sit amet, consectetuer adipiscing elit, sed </tspan><tspan x="51.931" y="11.848" style="fill:#4C22E5; font-family:'Raleway-Light'; font-size:9.8729px;">diam nonummy nibh euismod tincidunt ut laoreet </tspan></text>
				<g>
					<g>
						<rect x="566.17" y="153.985" style="fill:none;" width="282.147" height="68.829"/>
						<text id="XMLID_00000109744822364382810720000008097650799289055416_" transform="matrix(1 0 0 1 671.9287 180.9639)"><tspan x="0" y="0" style="fill:#4C22E5; font-family:'Raleway-Light'; font-size:31.5547px;">TAKE YOUR</tspan><tspan x="-97.534" y="37.865" style="fill:#4C22E5; font-family:'Raleway-Light'; font-size:31.5547px;">BUSINESS TO THE</tspan></text>
						
							<text id="XMLID_00000024700606089511395310000007559805538413698187_" transform="matrix(1 0 0 1 571.0635 262.8038)" style="fill:#303B85; font-family:'Raleway-Bold'; font-size:46.8735px;">NEXT LEVEL</text>
					</g>
				</g>
			</g>
		</g>
		<g>
			<defs>
				<rect id="SVGID_1_" x="-0.5" y="-0.5" width="891" height="501"/>
			</defs>
			<clipPath id="SVGID_00000139290974771101993010000011252331755374292122_">
				<use xlink:href="#SVGID_1_"  style="overflow:visible;"/>
			</clipPath>
			<g style="clip-path:url(#SVGID_00000139290974771101993010000011252331755374292122_);">
				<g style="opacity:0.48;">
					<g>
						<g>
							<path style="fill:#FDFDFF;" d="M203.543,104.268v123.628c0,1.76-1.426,3.187-3.185,3.187H58.661
								c-1.759,0-3.187-1.428-3.187-3.187V104.268c0-1.76,1.428-3.185,3.187-3.185h141.697
								C202.117,101.083,203.543,102.508,203.543,104.268z"/>
						</g>
						<g>
							<g>
								<g>
									<g>
										<path style="fill:#4FCAFF;" d="M167.066,150.655c0-5.387,4.383-9.77,9.77-9.77c3.016,0,5.716,1.374,7.51,3.528
											c1.492-1.728,2.9-3.513,3.951-5.524c-2.963-2.887-7.007-4.671-11.461-4.671c-9.059,0-16.429,7.367-16.436,16.425
											c2.207,0.865,4.499,1.437,6.836,1.816C167.126,151.875,167.066,151.272,167.066,150.655z"/>
									</g>
								</g>
								<g>
									<g>
										<path style="fill:#4C22E5;" d="M188.973,139.585c-1.095,2.024-2.542,3.826-4.063,5.577
											c1.069,1.566,1.695,3.457,1.695,5.493c0,5.387-4.383,9.77-9.77,9.77c-4.427,0-8.173-2.96-9.369-7.005
											c-2.402-0.367-4.761-0.923-7.035-1.777c0.513,8.604,7.673,15.448,16.404,15.448c9.063,0,16.436-7.373,16.436-16.436
											C193.271,146.395,191.641,142.508,188.973,139.585z"/>
									</g>
								</g>
							</g>
							<g>
								<g>
									<g>
										<path style="fill:#4FCAFF;" d="M186.26,193.944c0,0.577-0.053,1.141-0.149,1.691c2.252-0.159,4.503-0.31,6.758-0.376
											c0.035-0.434,0.057-0.872,0.057-1.315c0-7.618-5.211-14.041-12.255-15.895c-0.574,2.148-1.132,4.3-1.629,6.466
											C183.195,185.64,186.26,189.44,186.26,193.944z"/>
									</g>
								</g>
								<g>
									<g>
										<path style="fill:#4C22E5;" d="M176.49,210.38c8.303,0,15.184-6.191,16.28-14.198c-2.293,0.071-4.582,0.228-6.872,0.389
											c-1.151,4.114-4.931,7.142-9.408,7.142c-5.387,0-9.77-4.383-9.77-9.77c0-5.387,4.383-9.77,9.77-9.77
											c0.564,0,1.115,0.051,1.653,0.143c0.499-2.171,1.057-4.327,1.633-6.479c-1.062-0.216-2.161-0.33-3.286-0.33
											c-9.063,0-16.436,7.373-16.436,16.436C160.054,203.007,167.427,210.38,176.49,210.38z"/>
									</g>
								</g>
							</g>
						</g>
						<g>
							<g>
								<g>
									<path style="fill:#4C22E5;" d="M73.677,135.963l-0.054,1.747l-2.22-0.069l0.052-1.669
										c-1.571-0.143-3.086-0.616-4.012-1.227l1.28-2.671c1.02,0.646,2.393,1.083,3.606,1.12c1.055,0.033,1.439-0.176,1.451-0.554
										c0.043-1.385-6.084-0.456-5.957-4.565c0.055-1.779,1.392-3.235,3.986-3.517l0.053-1.716l2.22,0.069l-0.052,1.685
										c1.162,0.146,2.286,0.48,3.168,1.012l-1.201,2.657c-1.069-0.585-2.084-0.884-3.045-0.914
										c-1.086-0.034-1.442,0.271-1.454,0.648c-0.041,1.322,6.086,0.409,5.96,4.471C77.405,134.171,76.131,135.613,73.677,135.963
										z"/>
								</g>
							</g>
						</g>
						<g>
							<path style="fill:#4C22E5;" d="M94.192,126.853h-11.58c-0.281,0-0.534,0.211-0.549,0.492c-0.016,0.3,0.223,0.548,0.519,0.548
								h11.61c0.287,0,0.52-0.233,0.52-0.52l0,0C94.712,127.086,94.479,126.853,94.192,126.853z"/>
						</g>
						<g>
							<path style="fill:#4C22E5;" d="M94.192,130.276h-11.58c-0.281,0-0.534,0.211-0.549,0.492c-0.016,0.3,0.223,0.548,0.519,0.548
								h11.61c0.287,0,0.52-0.233,0.52-0.52l0,0C94.712,130.509,94.479,130.276,94.192,130.276z"/>
						</g>
						<g>
							<path style="fill:#4C22E5;" d="M94.192,133.7h-11.58c-0.281,0-0.534,0.211-0.549,0.492c-0.016,0.3,0.223,0.548,0.519,0.548
								h11.61c0.287,0,0.52-0.233,0.52-0.52l0,0C94.712,133.932,94.479,133.7,94.192,133.7z"/>
						</g>
						<g>
							<g>
								<g>
									<g>
										<g>
											<g>
												<g>
													<rect x="89.056" y="171.705" style="fill:#4FCAFF;" width="15.434" height="43.515"/>
												</g>
											</g>
										</g>
									</g>
								</g>
								<g>
									<g>
										<g>
											<g>
												<g>
													<rect x="68.313" y="182.916" style="fill:#4C22E5;" width="14.311" height="32.304"/>
												</g>
											</g>
										</g>
									</g>
								</g>
								<g>
									<g>
										<g>
											<g>
												<g>
													<rect x="111.281" y="157.379" style="fill:#4C22E5;" width="15.203" height="57.841"/>
												</g>
											</g>
										</g>
									</g>
								</g>
								<g>
									<g>
										<g>
											<g>
												<g>
													<rect x="133.091" y="131.669" style="fill:#4FCAFF;" width="15.203" height="83.551"/>
												</g>
											</g>
										</g>
									</g>
								</g>
							</g>
							<g>
								<g>
									<path style="fill:#4C22E5;" d="M71.412,168.346c-0.092,0-0.184-0.034-0.256-0.102c-0.148-0.141-0.153-0.376-0.012-0.523
										l16.975-17.773c0.14-0.146,0.371-0.153,0.519-0.016l9.099,8.431l26.011-26.372c0.144-0.146,0.378-0.147,0.523-0.004
										c0.146,0.144,0.147,0.378,0.004,0.524l-26.263,26.628c-0.14,0.143-0.368,0.147-0.515,0.012l-9.094-8.427L71.68,168.232
										C71.607,168.308,71.509,168.346,71.412,168.346z"/>
								</g>
								<g>
									<g>
										<circle style="fill:#4C22E5;" cx="71.412" cy="167.976" r="2.961"/>
									</g>
								</g>
								<g>
									<g>
										<path style="fill:#4C22E5;" d="M91.348,150.431c0,1.635-1.326,2.961-2.961,2.961s-2.961-1.326-2.961-2.961
											s1.326-2.961,2.961-2.961S91.348,148.796,91.348,150.431z"/>
									</g>
								</g>
								<g>
									<g>
										<circle style="fill:#4C22E5;" cx="98.278" cy="159.185" r="2.961"/>
									</g>
								</g>
								<g>
									<polygon style="fill:#4C22E5;" points="119.623,129.179 126.961,135.964 128.4,127.373 									"/>
								</g>
							</g>
							<g>
								<path style="fill:#4C22E5;" d="M156.525,215.59H61.432c-0.204,0-0.37-0.166-0.37-0.37c0-0.204,0.166-0.37,0.37-0.37h95.093
									c0.204,0,0.37,0.166,0.37,0.37C156.895,215.424,156.73,215.59,156.525,215.59z"/>
							</g>
						</g>
						<g>
							<path style="fill:#4C22E5;" d="M203.543,104.268v8.46H55.474v-8.46c0-1.76,1.428-3.185,3.187-3.185h141.697
								C202.117,101.083,203.543,102.508,203.543,104.268z"/>
						</g>
						<g>
							<g>
								<g>
									<g>
										<g>
											<path style="fill:#4FCAFF;" d="M183.659,106.905c0,0.967-0.784,1.752-1.752,1.752c-0.967,0-1.751-0.784-1.751-1.752
												c0-0.967,0.784-1.751,1.751-1.751C182.875,105.154,183.659,105.938,183.659,106.905z"/>
										</g>
									</g>
								</g>
							</g>
							<g>
								<g>
									<g>
										<g>
											<path style="fill:#4FCAFF;" d="M189.336,106.905c0,0.967-0.784,1.752-1.752,1.752c-0.967,0-1.751-0.784-1.751-1.752
												c0-0.967,0.784-1.751,1.751-1.751C188.551,105.154,189.336,105.938,189.336,106.905z"/>
										</g>
									</g>
								</g>
							</g>
							<g>
								<g>
									<g>
										<g>
											<path style="fill:#4FCAFF;" d="M194.738,106.905c0,0.967-0.784,1.752-1.751,1.752c-0.967,0-1.751-0.784-1.751-1.752
												c0-0.967,0.784-1.751,1.751-1.751C193.953,105.154,194.738,105.938,194.738,106.905z"/>
										</g>
									</g>
								</g>
							</g>
						</g>
					</g>
					<g>
						<g>
							<g>
								<path style="fill:#FDFDFF;" d="M535.543,392.53v-65.605c0-1.43-1.159-2.59-2.59-2.59h-83.19c-1.43,0-2.59,1.16-2.59,2.59
									v65.605c0,1.28,1.038,2.318,2.318,2.318h83.733C534.505,394.849,535.543,393.811,535.543,392.53z"/>
							</g>
						</g>
						<g>
							<g>
								<g>
									<path style="fill:#4C22E5;" d="M524.4,349.986h-17.028c-0.414,0-0.785,0.31-0.807,0.723
										c-0.023,0.441,0.327,0.806,0.763,0.806H524.4c0.422,0,0.764-0.342,0.764-0.764l0,0
										C525.164,350.328,524.822,349.986,524.4,349.986z"/>
								</g>
								<g>
									<path style="fill:#4C22E5;" d="M524.4,355.02h-17.028c-0.414,0-0.785,0.31-0.807,0.723
										c-0.023,0.441,0.327,0.806,0.763,0.806H524.4c0.422,0,0.764-0.342,0.764-0.764l0,0
										C525.164,355.362,524.822,355.02,524.4,355.02z"/>
								</g>
								<g>
									<path style="fill:#4C22E5;" d="M524.4,360.053h-17.028c-0.414,0-0.785,0.31-0.807,0.723
										c-0.023,0.441,0.327,0.806,0.763,0.806H524.4c0.422,0,0.764-0.342,0.764-0.764l0,0
										C525.164,360.396,524.822,360.053,524.4,360.053z"/>
								</g>
								<g>
									<path style="fill:#4C22E5;" d="M524.4,365.087h-17.028c-0.414,0-0.785,0.31-0.807,0.723
										c-0.023,0.441,0.327,0.806,0.763,0.806H524.4c0.422,0,0.764-0.342,0.764-0.764l0,0
										C525.164,365.43,524.822,365.087,524.4,365.087z"/>
								</g>
								<g>
									<path style="fill:#4C22E5;" d="M524.4,370.121h-17.028c-0.414,0-0.785,0.31-0.807,0.723
										c-0.023,0.441,0.327,0.806,0.763,0.806H524.4c0.422,0,0.764-0.342,0.764-0.764l0,0
										C525.164,370.464,524.822,370.121,524.4,370.121z"/>
								</g>
								<g>
									<path style="fill:#4C22E5;" d="M524.4,375.155h-17.028c-0.414,0-0.785,0.31-0.807,0.723
										c-0.023,0.441,0.327,0.806,0.763,0.806H524.4c0.422,0,0.764-0.342,0.764-0.764l0,0
										C525.164,375.498,524.822,375.155,524.4,375.155z"/>
								</g>
								<g>
									<path style="fill:#4C22E5;" d="M524.4,380.189h-17.028c-0.414,0-0.785,0.31-0.807,0.723
										c-0.023,0.441,0.327,0.806,0.763,0.806H524.4c0.422,0,0.764-0.342,0.764-0.764l0,0
										C525.164,380.531,524.822,380.189,524.4,380.189z"/>
								</g>
							</g>
						</g>
						<g>
							<g>
								<path style="fill:#4C22E5;" d="M535.543,326.925v10.64h-88.37v-10.64c0-1.43,1.16-2.59,2.59-2.59h83.19
									C534.384,324.335,535.543,325.495,535.543,326.925z"/>
							</g>
						</g>
						<g>
							<g>
								<g>
									<g>
										<g>
											<path style="fill:#FDFDFF;" d="M517.951,330.95c0,1.152-0.934,2.087-2.087,2.087c-1.152,0-2.087-0.935-2.087-2.087
												c0-1.153,0.934-2.087,2.087-2.087C517.017,328.863,517.951,329.797,517.951,330.95z"/>
										</g>
									</g>
								</g>
							</g>
							<g>
								<g>
									<g>
										<g>
											<path style="fill:#FDFDFF;" d="M524.714,330.95c0,1.152-0.934,2.087-2.087,2.087c-1.152,0-2.087-0.935-2.087-2.087
												c0-1.153,0.934-2.087,2.087-2.087C523.78,328.863,524.714,329.797,524.714,330.95z"/>
										</g>
									</g>
								</g>
							</g>
							<g>
								<g>
									<g>
										<g>
											<path style="fill:#FDFDFF;" d="M531.151,330.95c0,1.152-0.934,2.087-2.086,2.087c-1.153,0-2.087-0.935-2.087-2.087
												c0-1.153,0.934-2.087,2.087-2.087C530.216,328.863,531.151,329.797,531.151,330.95z"/>
										</g>
									</g>
								</g>
							</g>
						</g>
						<g>
							<g>
								<g>
									<g>
										<g>
											<path style="fill:#4C22E5;" d="M497.288,365.241c0,11.191-9.071,20.26-20.26,20.26c-11.192,0-20.263-9.069-20.263-20.26
												c0-2.774,0.559-5.42,1.569-7.83l18.694,7.83l-0.96-20.235c0.314-0.02,0.637-0.025,0.96-0.025
												C488.216,344.981,497.288,354.052,497.288,365.241z"/>
										</g>
									</g>
								</g>
							</g>
							<g>
								<g>
									<g>
										<g>
											<g>
												<g>
													<path style="fill:#FDFDFF;" d="M474.237,341.812c-6.055,0.28-11.41,3.217-14.935,7.672
														c-1.134,1.433-2.079,3.023-2.796,4.733l18.692,7.83L474.237,341.812z"/>
												</g>
											</g>
										</g>
									</g>
								</g>
							</g>
						</g>
					</g>
					<g>
						<g>
							<g>
								<path style="fill:#FDFDFF;" d="M487.98,238.476v-80.444c0-1.316-1.067-2.383-2.384-2.383h-76.558
									c-1.316,0-2.384,1.067-2.384,2.383v80.444H487.98z"/>
							</g>
						</g>
						<g>
							<polygon style="fill:#4C22E5;" points="425.11,179.633 425.11,182.35 421.579,182.35 421.579,185.881 418.862,185.881 
								418.862,182.35 415.331,182.35 415.331,179.633 418.862,179.633 418.862,176.1 421.579,176.1 421.579,179.633 							"/>
						</g>
						<g>
							<path style="fill:#4C22E5;" d="M439.027,177.482H428.24c-0.262,0-0.497,0.196-0.511,0.458
								c-0.015,0.279,0.207,0.51,0.484,0.51h10.814c0.267,0,0.484-0.217,0.484-0.484l0,0
								C439.511,177.698,439.294,177.482,439.027,177.482z"/>
						</g>
						<g>
							<path style="fill:#4C22E5;" d="M439.027,180.671H428.24c-0.262,0-0.497,0.196-0.511,0.458
								c-0.015,0.279,0.207,0.51,0.484,0.51h10.814c0.267,0,0.484-0.217,0.484-0.484l0,0
								C439.511,180.887,439.294,180.671,439.027,180.671z"/>
						</g>
						<g>
							<path style="fill:#4C22E5;" d="M439.027,183.859H428.24c-0.262,0-0.497,0.196-0.511,0.458
								c-0.015,0.279,0.207,0.51,0.484,0.51h10.814c0.267,0,0.484-0.217,0.484-0.484l0,0
								C439.511,184.076,439.294,183.859,439.027,183.859z"/>
						</g>
						<g>
							<g>
								<g>
									<path style="fill:#4C22E5;" d="M430.822,225.487L430.822,225.487c0,0.409,0.332,0.741,0.741,0.741h46.906
										c0.409,0,0.741-0.332,0.741-0.741l0,0c0-0.409-0.332-0.741-0.741-0.741h-46.906
										C431.153,224.746,430.822,225.077,430.822,225.487z"/>
								</g>
							</g>
							<g>
								<g>
									<path style="fill:#4C22E5;" d="M430.822,221.575L430.822,221.575c0,0.409,0.332,0.741,0.741,0.741h46.906
										c0.409,0,0.741-0.332,0.741-0.741l0,0c0-0.409-0.332-0.741-0.741-0.741h-46.906
										C431.153,220.834,430.822,221.166,430.822,221.575z"/>
								</g>
							</g>
							<g>
								<circle style="fill:#FDFDFF;" cx="419.996" cy="223.531" r="5.122"/>
							</g>
						</g>
						<g>
							<g>
								<path style="fill:#FDFDFF;" d="M420.771,210.241c-0.098,0-0.195-0.041-0.265-0.12c-0.128-0.146-0.114-0.369,0.032-0.497
									l15.605-13.71c0.1-0.087,0.24-0.111,0.363-0.063c0.123,0.049,0.208,0.163,0.22,0.295l0.847,9.097l19.876-17.13
									c0.092-0.08,0.219-0.105,0.335-0.07c0.116,0.036,0.206,0.13,0.236,0.248l3.418,13.252l16.813-16.537
									c0.139-0.136,0.362-0.135,0.498,0.004c0.137,0.139,0.135,0.362-0.004,0.498l-17.248,16.966
									c-0.09,0.088-0.22,0.122-0.341,0.088c-0.121-0.034-0.216-0.13-0.247-0.251l-3.429-13.295l-19.964,17.206
									c-0.1,0.086-0.24,0.109-0.362,0.06c-0.122-0.049-0.207-0.163-0.219-0.294l-0.846-9.089l-15.086,13.254
									C420.936,210.212,420.853,210.241,420.771,210.241z"/>
							</g>
							<g>
								<g>
									<path style="fill:#4C22E5;" d="M459.675,187.998c0,1.086-0.88,1.966-1.966,1.966c-1.086,0-1.966-0.88-1.966-1.966
										c0-1.086,0.88-1.966,1.966-1.966C458.794,186.031,459.675,186.912,459.675,187.998z"/>
								</g>
							</g>
							<g>
								<g>
									<path style="fill:#4C22E5;" d="M480.228,185.62c0,1.086-0.88,1.966-1.967,1.966c-1.086,0-1.966-0.88-1.966-1.966
										c0-1.086,0.88-1.966,1.966-1.966C479.347,183.653,480.228,184.534,480.228,185.62z"/>
								</g>
							</g>
							<g>
								<g>
									<path style="fill:#4C22E5;" d="M438.486,196.179c0,1.086-0.88,1.966-1.966,1.966s-1.966-0.88-1.966-1.966
										c0-1.086,0.88-1.966,1.966-1.966S438.486,195.092,438.486,196.179z"/>
								</g>
							</g>
							<g>
								<g>
									<path style="fill:#4C22E5;" d="M439.511,206.372c0,1.086-0.88,1.966-1.966,1.966c-1.086,0-1.966-0.88-1.966-1.966
										c0-1.086,0.88-1.967,1.966-1.967C438.631,204.406,439.511,205.286,439.511,206.372z"/>
								</g>
							</g>
							<g>
								<g>
									<path style="fill:#4C22E5;" d="M422.737,210.126c0,1.086-0.88,1.967-1.966,1.967c-1.086,0-1.966-0.88-1.966-1.967
										c0-1.086,0.88-1.966,1.966-1.966C421.857,208.16,422.737,209.04,422.737,210.126z"/>
								</g>
							</g>
							<g>
								<g>
									<path style="fill:#4C22E5;" d="M463.245,202.06c0,1.086-0.88,1.966-1.966,1.966c-1.086,0-1.966-0.88-1.966-1.966
										c0-1.086,0.88-1.966,1.966-1.966C462.365,200.094,463.245,200.974,463.245,202.06z"/>
								</g>
							</g>
						</g>
						<g>
							<g>
								<path style="fill:#4C22E5;" d="M406.655,158.031v9.792h81.325v-9.792c0-1.316-1.067-2.383-2.384-2.383h-76.558
									C407.722,155.648,406.655,156.715,406.655,158.031z"/>
							</g>
						</g>
						<g>
							<g>
								<g>
									<g>
										<g>
											<path style="fill:#FDFDFF;" d="M472.807,161.736c0,1.061-0.86,1.921-1.921,1.921c-1.061,0-1.92-0.86-1.92-1.921
												c0-1.061,0.86-1.921,1.92-1.921C471.947,159.815,472.807,160.675,472.807,161.736z"/>
										</g>
									</g>
								</g>
							</g>
							<g>
								<g>
									<g>
										<g>
											<circle style="fill:#FDFDFF;" cx="477.111" cy="161.736" r="1.921"/>
										</g>
									</g>
								</g>
							</g>
							<g>
								<g>
									<g>
										<g>
											<path style="fill:#FDFDFF;" d="M484.954,161.736c0,1.061-0.86,1.921-1.92,1.921c-1.061,0-1.921-0.86-1.921-1.921
												c0-1.061,0.86-1.921,1.921-1.921C484.094,159.815,484.954,160.675,484.954,161.736z"/>
										</g>
									</g>
								</g>
							</g>
						</g>
					</g>
					<g>
						<g>
							<g>
								<path style="fill:#4FCAFF;" d="M365.467,151.748c5.929,9.295,3.191,21.681-6.105,27.61
									c-5.204,3.319-11.375,3.92-16.841,2.177c-0.673,4.624-1.137,9.254-0.738,13.88c8.291,1.721,17.231,0.348,24.917-4.554
									c15.631-9.971,20.241-30.795,10.282-46.431c-4.761,0.937-9.345,2.473-13.794,4.391
									C364.021,149.71,364.788,150.684,365.467,151.748z"/>
							</g>
						</g>
						<g>
							<g>
								<path style="fill:#4C22E5;" d="M339.85,194.962c-0.338-4.698,0.176-9.401,0.872-14.096c-3.568-1.526-6.73-4.1-8.97-7.612
									c-5.929-9.295-3.191-21.681,6.105-27.61c7.638-4.872,17.361-3.887,23.875,1.775c4.549-2.01,9.231-3.647,14.094-4.677
									c-10.356-14.282-30.242-18.21-45.307-8.6c-15.638,9.975-20.245,30.813-10.27,46.45
									C324.938,187.943,332.029,192.855,339.85,194.962z"/>
							</g>
						</g>
					</g>
					<g>
						<g>
							<g>
								<path style="fill:#4FCAFF;" d="M611.813,372.215c3.573,5.601,1.923,13.064-3.678,16.637c-3.135,2-6.854,2.362-10.148,1.312
									c-0.405,2.786-0.685,5.576-0.445,8.363c4.996,1.037,10.383,0.21,15.014-2.744c9.419-6.008,12.196-18.555,6.195-27.977
									c-2.869,0.565-5.631,1.49-8.312,2.646C610.942,370.987,611.404,371.574,611.813,372.215z"/>
							</g>
						</g>
						<g>
							<g>
								<path style="fill:#4C22E5;" d="M596.378,398.253c-0.204-2.831,0.106-5.664,0.525-8.493c-2.15-0.92-4.055-2.471-5.405-4.586
									c-3.573-5.601-1.923-13.064,3.678-16.637c4.603-2.936,10.461-2.342,14.386,1.069c2.741-1.211,5.562-2.198,8.492-2.818
									c-6.24-8.605-18.222-10.972-27.299-5.182c-9.423,6.01-12.199,18.566-6.188,27.989
									C587.393,394.024,591.665,396.984,596.378,398.253z"/>
							</g>
						</g>
					</g>
				</g>
				<g>
					<g>
						<g>
							<path style="fill:none;stroke:#303B85;stroke-width:1.8434;stroke-miterlimit:10;" d="M167.981,358.748
								c0,0-21.531-12.317-12.982-55.379"/>
							<g>
								
									<rect x="155.476" y="228.442" transform="matrix(-1 -1.224647e-16 1.224647e-16 -1 321.3605 540.8748)" style="fill:#4C22E5;" width="10.408" height="83.992"/>
								<path style="fill:#4FCAFF;" d="M156.585,312.433L156.585,312.433c8.777,0,15.892-7.115,15.892-15.892v-52.253
									c0-8.777-7.115-15.893-15.892-15.893l0,0c-8.777,0-15.893,7.115-15.893,15.893v52.253
									C140.693,305.318,147.808,312.433,156.585,312.433z"/>
								<path style="fill:#303B85;" d="M164.071,312.433L164.071,312.433c7.776,0,14.079-6.303,14.079-14.079v-55.88
									c0-7.776-6.304-14.079-14.079-14.079l0,0c-7.776,0-14.079,6.304-14.079,14.079v55.88
									C149.992,306.13,156.296,312.433,164.071,312.433z"/>
							</g>
							<g>
								<g>
									
										<rect x="191.345" y="361.094" transform="matrix(-1 -1.224647e-16 1.224647e-16 -1 394.6706 788.232)" style="fill:#4FCAFF;" width="11.981" height="66.044"/>
									<polygon style="fill:#4FCAFF;" points="200.225,418.724 234.645,434.28 234.155,438.69 198.265,427.138 									"/>
									<polygon style="fill:#4FCAFF;" points="194.38,418.724 159.961,434.28 160.451,438.69 196.34,427.138 									"/>
								</g>
								<path style="fill:#090B0F;" d="M224.856,446.569c0,4.543,3.683,8.226,8.226,8.226s8.226-3.683,8.226-8.226
									c0-4.543-3.683-8.226-8.226-8.226S224.856,442.026,224.856,446.569z"/>
								<path style="fill:#090B0F;" d="M151.735,446.569c0,4.543,3.683,8.226,8.226,8.226c4.543,0,8.226-3.683,8.226-8.226
									c0-4.543-3.683-8.226-8.226-8.226C155.418,438.343,151.735,442.026,151.735,446.569z"/>
								<path style="fill:#4FCAFF;" d="M163.529,365.692h69.436c3.835,0,6.944-3.109,6.944-6.944l0,0
									c0-3.835-3.109-6.944-6.944-6.944h-69.436c-3.835,0-6.943,3.109-6.943,6.944l0,0
									C156.585,362.583,159.694,365.692,163.529,365.692z"/>
							</g>
						</g>
						<g>
							<g>
								<polygon style="fill:#8A5449;" points="244.696,214.215 230.083,230.486 215.763,215.578 237.721,191.458 								"/>
								<path style="fill:#04060A;" d="M236.14,223.742c0.255-0.284,1.835-13.265,1.835-13.265l5.057,5.592L236.14,223.742z"/>
								<path style="fill:#8A5449;" d="M266.913,176.907c0,0,8.383,5.402,3.975,16.975c0,0-3.287,8.351-8.115,20.333
									c-2.551,6.331-10.426,8.967-15.963,4.975c-3.391-2.445-6.899-5.802-9.372-10.262l-3.119-7.149
									c-6.309-18.902,14.282-35.908,31.362-25.644C266.088,176.38,266.499,176.637,266.913,176.907z"/>
								<path style="fill:#8A5449;" d="M265.799,202.763l2.431,5.685c0.334,0.781-0.4,1.595-1.211,1.343l-4.291-1.333
									L265.799,202.763z"/>
								<g>
									<g>
										<path style="fill:#04060A;" d="M265.484,192.35c0,0,3.212,0.808,2.858,2.26c0,0-0.264,0.975-3.05,0.211
											c-2.786-0.765-3.437-1.24-3.441-2.245C261.846,191.571,264.012,191.843,265.484,192.35z"/>
									</g>
								</g>
								<path style="fill:#303B85;" d="M229.08,172.475c2.85-4.367,9.715-7.667,14.928-7.783
									c22.36-0.498,28.136,19.289,28.136,19.289c-27.52-21.003-26.042,8.11-26.042,8.11s-5.304,3.179-6.605,4.887
									c-5.865,7.699-11.317,5.312-11.317,5.312C226.572,187.369,224.468,179.54,229.08,172.475z"/>
								<path style="fill:#04060A;" d="M262.636,201.639c-0.075,0.769,0.488,1.454,1.258,1.529c0.77,0.075,1.454-0.488,1.529-1.258
									c0.075-0.77-0.488-1.454-1.258-1.529C263.395,200.306,262.711,200.87,262.636,201.639z"/>
								
									<line style="fill:none;stroke:#04060A;stroke-width:1.0235;stroke-linecap:round;stroke-linejoin:round;stroke-miterlimit:10;" x1="262.103" y1="211.265" x2="259.216" y2="209.145"/>
								<path style="fill:#303B85;" d="M245.403,195.86L245.403,195.86c3.159,0.332,6.066-1.754,6.763-4.852l2.103-9.346
									c0,0,8.76,10.057,13.977,1.869c0,0,12.99,7.301,15.772-1.842c2.782-9.143-5.781-11.497-24.39-17.189
									c0,0,3.679-3.173,0.927-4.854c-2.752-1.681-8.518,2.278-8.518,2.278s-0.072-5.446-3.264-5.494
									c-3.192-0.048-4.866,3.71-4.866,3.71s-22.991-3.8-19.696,21.573l3.969,20.577l13.457-10.049L245.403,195.86z"/>
								<g>
									<path style="fill:#8A5449;" d="M234.654,190.713c-1.704,3.205-0.487,7.184,2.718,8.888
										c3.205,1.704,7.184,0.487,8.888-2.718c1.704-3.205,0.487-7.184-2.718-8.888
										C240.337,186.291,236.358,187.508,234.654,190.713z"/>
									
										<path style="fill:none;stroke:#04060A;stroke-width:1.0235;stroke-linecap:round;stroke-linejoin:round;stroke-miterlimit:10;" d="
										M242.409,196.324c0,0,2.237-4.207-2.138-5.683"/>
								</g>
							</g>
							<g>
								<path style="fill:#4FCAFF;" d="M231.734,230.79c0,0,0.139,11.659-7.542,30.642c-7.681,18.984-4.792,52-4.792,52
									s-21.46,11.555-53.65,11.143c0,0-3.358-51.397,11.968-82.951c14.032-28.889,38.387-26.611,38.387-26.611L231.734,230.79z"/>
								<g>
									
										<rect x="314.952" y="294.39" transform="matrix(-1 -1.224647e-16 1.224647e-16 -1 675.6229 593.8015)" style="fill:#4C22E5;" width="45.718" height="5.021"/>
									<g>
										<g>
											<polygon style="fill:#8A5449;" points="272.268,280.426 315.063,289.886 316.497,299.345 256.782,299.345 											"/>
											<path style="fill:#8A5449;" d="M316.497,299.345c0,0,15.924-0.38,19.535-12.716l13.489,1.895
												c1.569,0,2.842-1.272,2.842-2.841l0,0c0-1.366-0.971-2.538-2.313-2.792l-10.797-3.205
												c-1.412-0.267-2.849-0.277-4.263-0.02c-3.371,0.615-11.37,4.805-19.927,10.22L316.497,299.345z"/>
										</g>
										<g>
											<polygon style="fill:#4FCAFF;" points="229.009,230.743 272.268,280.426 256.782,299.345 203.876,257.723 											"/>
											
												<line style="fill:none;stroke:#04060A;stroke-width:1.537;stroke-miterlimit:10;" x1="221.268" y1="271.406" x2="203.876" y2="257.723"/>
										</g>
									</g>
								</g>
							</g>
							<g>
								<g>
									<g>
										<polygon style="fill:#8A5449;" points="270.532,406.774 256.452,435.234 238.655,434.08 250.26,402.581 										"/>
										<g>
											<g>
												<path style="fill:#090B0F;" d="M259.015,431.412l25.478,13.735c1.877,0.993,2.828,3.144,2.3,5.201l0,0l-55.209-1.111
													l6.402-18.534L259.015,431.412z"/>
												<polygon style="fill:#4C22E5;" points="230.562,454.715 287.324,455.86 287.444,450.363 230.682,449.217 												
													"/>
											</g>
										</g>
									</g>
									<path style="fill:#4C22E5;" d="M272.268,423.867l-30.5-6.027l21.661-79.732c2.913-10.297,13.904-16.008,24.004-12.473l0,0
										c9.742,3.41,14.834,14.109,11.337,23.82L272.268,423.867z"/>
								</g>
								<g>
									<path style="fill:#4C22E5;" d="M219.4,313.432l65.852,11.587c0,0,5.112,9.13,0.838,14.59l-7.235,9.245
										c-1.751,2.238-4.435,5.595-7.277,5.595l-80.768-2.049c0,0-25.343,2.487-25.061-27.826L219.4,313.432z"/>
									
										<line style="fill:none;stroke:#04060A;stroke-width:1.537;stroke-miterlimit:10;" x1="259.216" y1="353.615" x2="267.394" y2="346.912"/>
								</g>
							</g>
						</g>
					</g>
					<g>
						<g>
							<g>
								<g>
									<rect x="395.439" y="210.298" style="fill:#4C22E5;" width="4.957" height="88.131"/>
									<rect x="372.091" y="294.39" style="fill:#4C22E5;" width="49.902" height="4.955"/>
								</g>
								
									<rect x="382.378" y="143.703" transform="matrix(-0.9404 -0.3401 0.3401 -0.9404 683.4557 530.5374)" style="fill:#4C22E5;" width="11.694" height="123.335"/>
								<path style="fill:#4C22E5;" d="M404.522,206.755c0,8.348-6.767,15.115-15.115,15.115c-4.062,0-7.742-1.611-10.458-4.217
									c3.31-8.724,6.634-17.492,11.52-25.96C398.319,192.241,404.522,198.766,404.522,206.755z"/>
								<path style="fill:#04060A;" d="M398.266,194.546l-5.025,26.765c0,0-1.966,0.783-4.836,0.498L398.266,194.546z"/>
							</g>
						</g>
						<g>
							<g>
								
									<line style="fill:none;stroke:#303B85;stroke-width:2.5;stroke-miterlimit:10;" x1="429.353" y1="310.384" x2="429.353" y2="455.86"/>
								
									<line style="fill:none;stroke:#303B85;stroke-width:2.5;stroke-miterlimit:10;" x1="278.855" y1="310.384" x2="278.855" y2="455.86"/>
								
									<rect x="241.768" y="299.345" transform="matrix(-1 -1.224647e-16 1.224647e-16 -1 701.6417 609.729)" style="fill:#303B85;" width="218.106" height="11.039"/>
							</g>
						</g>
					</g>
				</g>
				<g>
					
						<linearGradient id="SVGID_00000124138203284932418310000017599328273606651542_" gradientUnits="userSpaceOnUse" x1="321.5717" y1="-115.3313" x2="605.0704" y2="-115.3313" gradientTransform="matrix(0.9948 0.1018 -0.1018 0.9948 -3.4813 47.6911)">
						<stop  offset="6.610600e-04" style="stop-color:#4C22E5"/>
						<stop  offset="0.1448" style="stop-color:#4C33E8"/>
						<stop  offset="0.4321" style="stop-color:#4D61EF"/>
						<stop  offset="0.8319" style="stop-color:#4EA9FA"/>
						<stop  offset="1" style="stop-color:#4FCAFF"/>
					</linearGradient>
					<path style="fill:url(#SVGID_00000124138203284932418310000017599328273606651542_);" d="M371.552-79.273
						c-23.83,8.557-38.184,27.703-43.629,52.817c-16.652,76.787,77.562,94.454,100.601,74.492
						c43.198-37.43,23.056-35.637,116.698-25.884c56.851,5.921,108.753-57.039,15.702-109.696c-6.132-3.47-13.594-5.9-21.239-7.598
						c-18.388-4.084-34.946,1.405-50.826,7.735c-17.275,6.886-31.376,17.134-56.121,13.483
						C407.994-77.575,395.852-87.998,371.552-79.273z"/>
				</g>
				<g>
					
						<linearGradient id="SVGID_00000178894517765179145620000007072261328644405945_" gradientUnits="userSpaceOnUse" x1="66.1723" y1="-294.7993" x2="110.4506" y2="-294.7993" gradientTransform="matrix(0.726 0.6877 -0.6877 0.726 88.8355 509.8524)">
						<stop  offset="6.610600e-04" style="stop-color:#4C22E5"/>
						<stop  offset="0.1448" style="stop-color:#4C33E8"/>
						<stop  offset="0.4321" style="stop-color:#4D61EF"/>
						<stop  offset="0.8319" style="stop-color:#4EA9FA"/>
						<stop  offset="1" style="stop-color:#4FCAFF"/>
					</linearGradient>
					<path style="fill:url(#SVGID_00000178894517765179145620000007072261328644405945_);" d="M369.976,355.646
						c0,0-15.727-19.614-29.296-14.156c-13.569,5.458,6.39,23.72,17.1,29.465C368.49,376.701,382.29,370.221,369.976,355.646z"/>
				</g>
				<g>
					
						<linearGradient id="SVGID_00000160172141069856226250000014351615830993622955_" gradientUnits="userSpaceOnUse" x1="421.246" y1="144.6955" x2="586.6928" y2="80.3551">
						<stop  offset="6.610600e-04" style="stop-color:#4C22E5"/>
						<stop  offset="0.1448" style="stop-color:#4C33E8"/>
						<stop  offset="0.4321" style="stop-color:#4D61EF"/>
						<stop  offset="0.8319" style="stop-color:#4EA9FA"/>
						<stop  offset="1" style="stop-color:#4FCAFF"/>
					</linearGradient>
					<path style="fill:url(#SVGID_00000160172141069856226250000014351615830993622955_);" d="M534.055,78.169
						c0,0-37.341,5.624-34.951,27.349c3.074,27.943,45.954,19.746,59.932,8.009C579.464,96.376,569.983,73.66,534.055,78.169z"/>
				</g>
				<g>
					
						<linearGradient id="SVGID_00000181773981444275521950000000546906127981665168_" gradientUnits="userSpaceOnUse" x1="762.0816" y1="475.4052" x2="935.5021" y2="475.4052">
						<stop  offset="6.610600e-04" style="stop-color:#4C22E5"/>
						<stop  offset="0.1448" style="stop-color:#4C33E8"/>
						<stop  offset="0.4321" style="stop-color:#4D61EF"/>
						<stop  offset="0.8319" style="stop-color:#4EA9FA"/>
						<stop  offset="1" style="stop-color:#4FCAFF"/>
					</linearGradient>
					<path style="fill:url(#SVGID_00000181773981444275521950000000546906127981665168_);" d="M869.91,430.989
						c0,0-101.644,7.732-107.529,52.28c-5.885,44.548,76.508,41.718,116.065,27.643C953.106,484.347,958.768,426.141,869.91,430.989
						z"/>
				</g>
				<g>
					
						<linearGradient id="SVGID_00000167374941663728093300000001744365750854143396_" gradientUnits="userSpaceOnUse" x1="-1370.4879" y1="534.1115" x2="-1571.6001" y2="721.9084" gradientTransform="matrix(-0.9993 -0.037 -0.037 0.9993 -1480.8945 -261.7441)">
						<stop  offset="6.610600e-04" style="stop-color:#4C22E5"/>
						<stop  offset="0.1448" style="stop-color:#4C33E8"/>
						<stop  offset="0.4321" style="stop-color:#4D61EF"/>
						<stop  offset="0.8319" style="stop-color:#4EA9FA"/>
						<stop  offset="1" style="stop-color:#4FCAFF"/>
					</linearGradient>
					<path style="fill:url(#SVGID_00000167374941663728093300000001744365750854143396_);" d="M-174.406,426.002
						c-21.408-31.576-21.879-67.629-6.207-103.034c11.348-25.637,30.837-47.422,58.146-55.957c22.839-7.138,47.79-4.64,70.066,3.327
						c18.036,6.451,35.181,15.558,47.435,30.625c12.394,15.237,18.542,33.535,20.455,52.914c2.041,20.68,8.281,38.216,25.317,51.093
						c20.39,15.413,43.759,27.25,65.839,39.979c6.81,3.926,13.616,7.86,20.413,11.81c74.46,43.275,81.73,166.002-78.296,147.471
						c-10.546-1.221-21.786-4.889-32.6-9.611c-26.01-11.358-41.29-32.742-54.999-54.548c-14.913-23.722-22.978-48.718-56.341-66.247
						C-128.54,456.295-152.575,458.201-174.406,426.002z"/>
				</g>
			</g>
		</g>
	</g>
</g>
</svg>
